<?xml version="1.0" encoding="UTF-8" standalone="no"?>
<svg xmlns:ffdec="https://www.free-decompiler.com/flash" xmlns:xlink="http://www.w3.org/1999/xlink" ffdec:objectType="shape" height="54.1px" width="102.35px" xmlns="http://www.w3.org/2000/svg">
  <g transform="matrix(1.0, 0.0, 0.0, 1.0, 21.4, 2.1)">
    <path d="M-17.4 1.75 L-17.55 2.2 Q-17.55 3.0 -16.5 3.0 -14.9 3.0 -14.9 0.45 L-15.25 -0.6 Q-15.25 -1.2 -15.65 -1.0 L-15.8 -0.6 Q-15.45 -2.1 -13.8 -2.1 L-12.15 -1.7 Q-11.25 -1.2 -11.25 -0.6 -11.25 0.85 -11.4 1.55 L-11.95 3.7 Q-10.45 4.7 0.05 9.45 12.25 14.95 13.8 15.3 L30.75 20.2 Q42.45 23.4 48.45 23.4 L52.65 22.85 Q53.3 22.85 58.2 19.8 63.05 16.7 67.35 16.7 71.6 16.7 76.1 20.3 79.2 22.8 80.35 25.55 L76.7 28.35 75.2 29.2 Q70.5 30.45 65.85 29.75 63.6 29.25 62.3 27.25 L61.2 25.9 Q60.85 25.6 60.5 25.4 L59.5 25.7 58.9 29.7 61.9 33.95 Q63.8 36.35 66.8 36.35 L67.2 36.25 Q67.75 40.25 64.45 42.35 62.6 43.5 60.5 44.05 58.1 44.6 55.8 44.05 55.15 43.95 54.75 43.45 54.2 42.85 53.95 42.1 L53.4 39.95 53.05 37.25 Q52.55 32.8 48.9 30.7 L45.05 28.95 Q39.7 27.0 34.2 25.6 L27.35 23.8 Q22.65 22.6 18.3 20.55 L3.9 13.7 Q-2.15 10.9 -8.5 8.55 -11.7 7.5 -14.75 5.85 -16.9 4.6 -18.9 3.0 -20.1 2.05 -21.35 1.75 L-21.0 1.1 Q-20.5 0.5 -19.7 0.5 -18.9 0.5 -18.1 1.1 L-17.4 1.75 M-12.05 4.05 L-11.95 3.7 -12.2 3.45 Q-12.2 2.95 -12.45 2.8 L-12.9 2.7 -12.95 3.0 -12.9 2.7 -12.45 2.8 Q-12.2 2.95 -12.2 3.45 L-11.95 3.7 -12.05 4.05" fill="#ffffcc" fill-rule="evenodd" stroke="none"/>
    <path d="M-17.4 1.75 L-16.5 2.75 -15.8 -0.55 -15.8 -0.6 -15.65 -1.0 Q-15.25 -1.2 -15.25 -0.6 L-14.9 0.45 Q-14.9 3.0 -16.5 3.0 -17.55 3.0 -17.55 2.2 L-17.4 1.75 M80.35 25.55 Q81.95 29.8 79.25 33.4 L78.2 34.55 Q76.05 36.45 73.2 36.35 L69.8 36.9 Q69.4 36.85 68.9 37.15 67.85 37.7 67.7 39.15 L67.4 41.7 66.75 44.85 Q66.1 47.0 64.65 48.6 63.1 50.4 60.8 51.1 58.0 51.95 55.35 52.0 52.5 52.15 50.3 50.65 48.6 49.55 47.85 47.5 46.35 43.3 43.8 39.6 42.6 37.9 40.65 36.45 39.1 35.35 37.45 34.5 33.45 32.2 29.3 30.1 L22.55 26.75 13.9 21.95 6.75 17.6 Q3.3 15.3 -0.7 13.95 L-9.4 10.85 Q-10.0 10.6 -10.55 10.4 -14.95 8.45 -19.25 6.05 L-20.0 5.35 -20.85 4.05 Q-21.55 2.95 -21.35 1.75 -20.1 2.05 -18.9 3.0 -16.9 4.6 -14.75 5.85 -11.7 7.5 -8.5 8.55 -2.15 10.9 3.9 13.7 L18.3 20.55 Q22.65 22.6 27.35 23.8 L34.2 25.6 Q39.7 27.0 45.05 28.95 L48.9 30.7 Q52.55 32.8 53.05 37.25 L53.4 39.95 53.95 42.1 Q54.2 42.85 54.75 43.45 55.15 43.95 55.8 44.05 58.1 44.6 60.5 44.05 62.6 43.5 64.45 42.35 67.75 40.25 67.2 36.25 L66.8 36.35 Q63.8 36.35 61.9 33.95 L58.9 29.7 59.5 25.7 60.5 25.4 Q60.85 25.6 61.2 25.9 L62.3 27.25 Q63.6 29.25 65.85 29.75 70.5 30.45 75.2 29.2 L76.7 28.35 80.35 25.55" fill="#cbb492" fill-rule="evenodd" stroke="none"/>
    <path d="M-15.8 -0.6 L-15.8 -0.55 -16.5 2.75 -17.4 1.75 -18.1 1.1 Q-18.9 0.5 -19.7 0.5 -20.5 0.5 -21.0 1.1 L-21.35 1.75 Q-21.55 2.95 -20.85 4.05 L-20.0 5.35 -19.25 6.05 Q-14.95 8.45 -10.55 10.4 -10.0 10.6 -9.4 10.85 L-0.7 13.95 Q3.3 15.3 6.75 17.6 L13.9 21.95 22.55 26.75 29.3 30.1 Q33.45 32.2 37.45 34.5 39.1 35.35 40.65 36.45 42.6 37.9 43.8 39.6 46.35 43.3 47.85 47.5 48.6 49.55 50.3 50.65 52.5 52.15 55.35 52.0 58.0 51.95 60.8 51.1 63.1 50.4 64.65 48.6 66.1 47.0 66.75 44.85 L67.4 41.7 67.7 39.15 Q67.85 37.7 68.9 37.15 69.4 36.85 69.8 36.9 L73.2 36.35 Q76.05 36.45 78.2 34.55 L79.25 33.4 Q81.95 29.8 80.35 25.55 79.2 22.8 76.1 20.3 71.6 16.7 67.35 16.7 63.05 16.7 58.2 19.8 53.3 22.85 52.65 22.85 L48.45 23.4 Q42.45 23.4 30.75 20.2 L13.8 15.3 Q12.25 14.95 0.05 9.45 -10.45 4.7 -11.95 3.7 L-12.05 4.05 M-15.8 -0.6 Q-15.45 -2.1 -13.8 -2.1 L-12.15 -1.7 Q-11.25 -1.2 -11.25 -0.6 -11.25 0.85 -11.4 1.55 L-11.95 3.7 -12.2 3.45 Q-12.2 2.95 -12.45 2.8 L-12.9 2.7 -12.95 3.0" fill="none" stroke="#000000" stroke-linecap="round" stroke-linejoin="round" stroke-opacity="0.4" stroke-width="0.05"/>
  </g>
</svg>
