<?xml version="1.0" encoding="UTF-8" standalone="no"?>
<svg xmlns:ffdec="https://www.free-decompiler.com/flash" xmlns:xlink="http://www.w3.org/1999/xlink" ffdec:objectType="shape" height="15.7px" width="48.65px" xmlns="http://www.w3.org/2000/svg">
  <g transform="matrix(1.0, 0.0, 0.0, 1.0, 64.15, 15.4)">
    <path d="M-64.15 -2.8 Q-64.15 -3.75 -63.05 -3.95 -62.0 -4.1 -62.0 -2.9 -62.0 -1.85 -63.05 -1.85 -64.25 -1.85 -64.15 -2.8 M-52.95 -8.55 Q-54.2 -8.55 -54.1 -9.9 -54.1 -11.6 -52.1 -12.9 -50.1 -14.15 -50.1 -11.55 -50.1 -10.9 -51.05 -9.8 -52.05 -8.55 -52.95 -8.55 M-43.2 -11.0 Q-43.2 -12.3 -42.15 -13.15 L-38.85 -15.15 Q-37.3 -16.0 -35.95 -13.9 L-34.85 -11.55 Q-34.85 -10.3 -35.6 -9.35 -36.65 -7.95 -38.85 -7.95 -41.35 -7.95 -42.5 -9.3 -43.2 -10.1 -43.2 -11.0 M-42.15 -4.65 Q-39.65 -5.3 -39.65 -3.65 -39.65 -3.0 -40.85 -2.05 -42.1 -1.05 -43.05 -1.05 -44.15 -1.05 -44.5 -1.85 L-44.65 -2.65 Q-44.65 -3.95 -42.15 -4.65 M-21.75 -6.95 Q-22.9 -5.05 -24.35 -5.05 -26.45 -5.05 -27.4 -6.2 -28.0 -6.9 -28.0 -7.7 -28.0 -9.9 -24.4 -11.4 -20.85 -12.95 -20.85 -9.1 -20.85 -8.4 -21.75 -6.95 M-22.8 -2.0 Q-22.8 -2.85 -19.15 -3.85 L-15.5 -4.1 Q-15.5 -3.5 -17.45 -2.15 -19.6 -0.65 -21.25 -0.65 -22.4 -0.65 -22.7 -1.3 L-22.8 -2.0 M-30.6 -0.75 Q-31.6 0.3 -33.35 0.3 -34.65 0.3 -35.25 -2.25 -29.85 -7.4 -29.85 -2.3 -29.85 -1.55 -30.6 -0.75" fill="#ba9501" fill-rule="evenodd" stroke="none"/>
  </g>
</svg>
