<?xml version="1.0" encoding="UTF-8" standalone="no"?>
<svg xmlns:ffdec="https://www.free-decompiler.com/flash" xmlns:xlink="http://www.w3.org/1999/xlink" ffdec:objectType="shape" height="59.7px" width="79.6px" xmlns="http://www.w3.org/2000/svg">
  <g transform="matrix(1.0, 0.0, 0.0, 1.0, 10.6, -5.55)">
    <path d="M56.15 16.05 L57.1 16.6 Q58.65 17.6 60.05 18.85 L60.45 19.25 60.7 19.45 60.85 19.65 60.95 19.75 61.15 19.95 61.4 20.2 61.65 20.45 61.35 20.85 Q60.25 22.1 58.6 21.9 56.95 21.7 55.2 20.35 54.5 18.55 54.55 17.9 54.6 17.2 56.15 16.05" fill="#ffffff" fill-rule="evenodd" stroke="none"/>
    <path d="M61.65 20.45 L61.7 20.5 61.9 20.7 62.05 20.9 62.3 21.2 62.5 21.4 62.7 21.65 62.95 21.95 63.55 22.75 63.8 23.05 64.0 23.35 64.15 23.6 64.25 23.75 64.35 23.85 64.65 24.3 64.85 24.7 65.0 24.9 65.05 25.0 62.95 26.1 60.8 27.25 Q55.95 20.05 47.65 17.8 L48.9 15.65 50.35 13.5 50.95 13.7 Q53.7 14.6 56.15 16.05 54.6 17.2 54.55 17.9 54.5 18.55 55.2 20.35 56.95 21.7 58.6 21.9 60.25 22.1 61.35 20.85 L61.65 20.45" fill="#fe9f78" fill-rule="evenodd" stroke="none"/>
    <path d="M65.05 25.0 Q70.75 34.35 68.2 44.9 65.65 55.5 56.25 61.25 46.9 67.0 36.25 64.45 25.65 61.9 19.9 52.5 14.75 44.05 16.35 34.6 L17.6 29.75 18.1 28.6 19.8 25.3 21.05 23.2 22.55 21.25 25.4 18.6 27.0 17.35 29.5 15.7 Q38.45 10.55 48.6 13.0 L50.35 13.5 48.9 15.65 47.65 17.8 46.85 17.6 Q39.15 15.75 32.25 18.85 L29.25 20.55 27.25 21.85 25.45 23.3 23.9 25.0 22.5 26.7 21.3 28.55 20.2 30.55 19.4 32.7 18.6 35.15 Q16.45 44.4 21.45 52.55 26.55 60.9 35.9 63.15 45.35 65.4 53.6 60.3 61.95 55.2 64.2 45.85 66.45 36.45 61.35 28.15 L60.8 27.25 62.95 26.1 65.05 25.0" fill="#a93301" fill-rule="evenodd" stroke="none"/>
    <path d="M60.8 27.25 L61.35 28.15 Q66.45 36.45 64.2 45.85 61.95 55.2 53.6 60.3 45.35 65.4 35.9 63.15 26.55 60.9 21.45 52.55 16.45 44.4 18.6 35.15 L19.4 32.7 20.2 30.55 21.3 28.55 22.5 26.7 23.9 25.0 25.45 23.3 27.25 21.85 29.25 20.55 32.25 18.85 Q39.15 15.75 46.85 17.6 L47.65 17.8 Q55.95 20.05 60.8 27.25 M53.0 33.3 Q50.0 28.45 44.55 27.15 40.1 26.1 36.1 27.9 L34.35 28.85 33.2 29.6 32.15 30.45 31.25 31.45 30.45 32.45 29.75 33.5 29.1 34.65 28.65 35.9 28.2 37.35 Q26.95 42.7 29.85 47.45 32.8 52.25 38.2 53.55 43.7 54.9 48.5 51.9 53.35 48.95 54.65 43.55 55.95 38.1 53.0 33.3" fill="#4e4843" fill-rule="evenodd" stroke="none"/>
    <path d="M49.75 39.5 Q50.5 39.6 50.6 40.0 L50.65 40.6 51.0 40.7 51.4 40.55 51.9 40.35 52.75 40.55 52.75 40.45 Q52.5 39.7 50.15 39.0 49.3 38.7 49.25 39.4 49.2 40.2 48.75 40.2 L48.45 40.1 48.15 39.75 48.0 39.85 48.05 40.35 Q48.2 40.65 48.7 40.65 49.5 40.65 49.75 39.5 M40.6 32.4 L41.35 32.45 41.4 32.0 41.1 31.7 40.75 31.4 Q40.75 30.45 39.75 29.45 38.75 28.45 38.75 29.5 38.75 30.05 39.85 31.0 39.0 31.75 39.0 32.05 39.0 32.6 39.8 32.6 L40.6 32.4 M45.2 29.8 L43.9 29.85 43.65 29.85 Q44.05 30.85 43.25 31.35 42.35 31.85 42.35 32.2 L42.9 33.0 44.0 33.75 44.3 33.45 43.65 32.35 Q44.1 32.0 45.1 31.5 45.65 31.25 45.65 30.85 45.65 29.9 45.2 29.8 M51.4 34.15 Q51.1 33.65 50.7 33.65 50.0 33.65 49.25 34.5 48.65 35.25 48.65 35.5 L48.35 35.4 48.35 35.3 49.25 34.45 Q49.65 34.05 49.65 33.4 49.65 32.1 48.65 32.15 47.6 32.25 47.6 33.3 47.6 33.95 47.25 34.05 L47.3 34.1 Q47.8 34.1 48.0 34.4 L47.15 34.95 Q46.9 35.05 46.9 35.35 L47.5 36.0 Q48.25 36.65 49.0 36.65 49.35 36.65 49.8 35.65 50.2 34.6 50.8 34.6 L51.35 34.65 51.4 34.15 M47.1 41.75 Q47.7 39.35 46.4 37.3 45.15 35.2 42.8 34.65 L39.1 34.95 38.35 35.4 37.85 35.7 37.4 36.1 37.05 36.5 36.7 36.95 36.4 37.4 36.1 37.9 35.9 38.45 35.7 39.05 Q35.15 41.35 36.4 43.4 37.7 45.5 40.05 46.05 42.4 46.6 44.45 45.35 46.55 44.05 47.1 41.75 M53.0 33.3 Q55.95 38.1 54.65 43.55 53.35 48.95 48.5 51.9 43.7 54.9 38.2 53.55 32.8 52.25 29.85 47.45 26.95 42.7 28.2 37.35 L28.65 35.9 29.1 34.65 29.75 33.5 30.45 32.45 31.25 31.45 32.15 30.45 33.2 29.6 34.35 28.85 36.1 27.9 Q40.1 26.1 44.55 27.15 50.0 28.45 53.0 33.3 M38.85 51.25 Q39.2 51.9 40.05 51.9 40.5 51.9 41.1 51.5 41.75 51.1 42.15 51.1 L44.2 51.95 44.2 51.45 43.3 50.6 Q42.5 50.05 42.1 50.05 L41.55 50.35 41.0 50.65 40.65 50.15 40.25 49.75 40.5 49.25 40.45 49.2 39.3 49.8 Q38.7 50.05 38.7 50.55 L38.85 51.25 M35.3 48.25 L34.95 47.6 34.55 47.1 35.75 45.5 Q35.75 44.4 34.65 45.6 33.5 46.75 33.5 47.0 L33.95 47.7 34.4 48.45 34.05 48.85 33.65 49.5 Q33.65 50.25 35.35 50.25 36.35 50.25 37.2 49.5 38.0 48.8 38.0 48.2 L37.6 47.8 36.85 48.8 Q36.45 49.35 35.4 49.4 L35.0 49.25 35.3 48.25 M29.8 43.45 L30.3 43.55 Q30.8 43.65 30.8 43.85 L30.65 44.4 30.45 45.15 30.95 46.05 Q31.55 46.95 32.25 46.95 L32.6 46.7 31.1 45.15 31.55 44.0 Q31.55 43.2 29.7 42.8 L30.9 41.55 30.75 41.0 30.65 41.0 29.85 41.95 29.1 42.75 29.25 43.1 29.8 43.45" fill="#8f8881" fill-rule="evenodd" stroke="none"/>
    <path d="M13.75 26.65 L13.65 26.5 12.95 25.6 12.25 24.95 6.85 20.15 6.0 19.45 5.1 18.55 Q5.1 18.3 4.9 18.4 L4.7 18.25 Q4.7 18.05 -2.6 14.4 -9.95 10.75 -9.95 10.0 -10.6 9.0 -10.6 8.0 L-10.25 7.0 -9.25 5.55 -7.5 6.0 Q-6.1 6.4 -6.1 6.95 L4.6 13.8 Q7.3 15.25 13.15 16.95 L14.9 17.45 18.95 18.6 18.15 19.9 16.45 22.85 14.85 25.3 13.75 26.65 M51.4 34.15 L51.35 34.65 50.8 34.6 Q50.2 34.6 49.8 35.65 49.35 36.65 49.0 36.65 48.25 36.65 47.5 36.0 L46.9 35.35 Q46.9 35.05 47.15 34.95 L48.0 34.4 Q47.8 34.1 47.3 34.1 L47.25 34.05 Q47.6 33.95 47.6 33.3 47.6 32.25 48.65 32.15 49.65 32.1 49.65 33.4 49.65 34.05 49.25 34.45 L48.35 35.3 48.35 35.4 48.65 35.5 Q48.65 35.25 49.25 34.5 50.0 33.65 50.7 33.65 51.1 33.65 51.4 34.15 M45.2 29.8 Q45.65 29.9 45.65 30.85 45.65 31.25 45.1 31.5 44.1 32.0 43.65 32.35 L44.3 33.45 44.0 33.75 42.9 33.0 42.35 32.2 Q42.35 31.85 43.25 31.35 44.05 30.85 43.65 29.85 L43.9 29.85 45.2 29.8 M40.6 32.4 L39.8 32.6 Q39.0 32.6 39.0 32.05 39.0 31.75 39.85 31.0 38.75 30.05 38.75 29.5 38.75 28.45 39.75 29.45 40.75 30.45 40.75 31.4 L41.1 31.7 41.4 32.0 41.35 32.45 40.6 32.4 M49.75 39.5 Q49.5 40.65 48.7 40.65 48.2 40.65 48.05 40.35 L48.0 39.85 48.15 39.75 48.45 40.1 48.75 40.2 Q49.2 40.2 49.25 39.4 49.3 38.7 50.15 39.0 52.5 39.7 52.75 40.45 L52.75 40.55 51.9 40.35 51.4 40.55 51.0 40.7 50.65 40.6 50.6 40.0 Q50.5 39.6 49.75 39.5 M29.8 43.45 L29.25 43.1 29.1 42.75 29.85 41.95 30.65 41.0 30.75 41.0 30.9 41.55 29.7 42.8 Q31.55 43.2 31.55 44.0 L31.1 45.15 32.6 46.7 32.25 46.95 Q31.55 46.95 30.95 46.05 L30.45 45.15 30.65 44.4 30.8 43.85 Q30.8 43.65 30.3 43.55 L29.8 43.45 M35.3 48.25 L35.0 49.25 35.4 49.4 Q36.45 49.35 36.85 48.8 L37.6 47.8 38.0 48.2 Q38.0 48.8 37.2 49.5 36.35 50.25 35.35 50.25 33.65 50.25 33.65 49.5 L34.05 48.85 34.4 48.45 33.95 47.7 33.5 47.0 Q33.5 46.75 34.65 45.6 35.75 44.4 35.75 45.5 L34.55 47.1 34.95 47.6 35.3 48.25 M38.85 51.25 L38.7 50.55 Q38.7 50.05 39.3 49.8 L40.45 49.2 40.5 49.25 40.25 49.75 40.65 50.15 41.0 50.65 41.55 50.35 42.1 50.05 Q42.5 50.05 43.3 50.6 L44.2 51.45 44.2 51.95 42.15 51.1 Q41.75 51.1 41.1 51.5 40.5 51.9 40.05 51.9 39.2 51.9 38.85 51.25" fill="#605a53" fill-rule="evenodd" stroke="none"/>
    <path d="M47.1 41.75 Q46.55 44.05 44.45 45.35 42.4 46.6 40.05 46.05 37.7 45.5 36.4 43.4 35.15 41.35 35.7 39.05 L35.9 38.45 36.1 37.9 36.4 37.4 36.7 36.95 37.05 36.5 37.4 36.1 37.85 35.7 38.35 35.4 39.1 34.95 42.8 34.65 Q45.15 35.2 46.4 37.3 47.7 39.35 47.1 41.75" fill="#9a7c76" fill-rule="evenodd" stroke="none"/>
    <path d="M17.6 29.75 L16.85 29.45 13.95 27.2 13.75 26.65 14.85 25.3 16.45 22.85 18.15 19.9 18.95 18.6 19.3 18.6 21.0 19.4 Q22.35 20.0 22.55 21.25 L21.05 23.2 19.8 25.3 18.1 28.6 17.6 29.75" fill="#999999" fill-rule="evenodd" stroke="none"/>
    <path d="M56.15 16.05 L57.1 16.6 Q58.65 17.6 60.05 18.85 L60.45 19.25 60.7 19.45 60.85 19.65 60.95 19.75 61.15 19.95 61.4 20.2 61.65 20.45 61.7 20.5 61.9 20.7 62.05 20.9 62.3 21.2 62.5 21.4 62.7 21.65 62.95 21.95 63.55 22.75 63.8 23.05 64.0 23.35 64.15 23.6 64.25 23.75 64.35 23.85 64.65 24.3 64.85 24.7 65.0 24.9 65.05 25.0 Q70.75 34.35 68.2 44.9 65.65 55.5 56.25 61.25 46.9 67.0 36.25 64.45 25.65 61.9 19.9 52.5 14.75 44.05 16.35 34.6 L17.6 29.75 16.85 29.45 13.95 27.2 13.75 26.65 13.65 26.5 12.95 25.6 12.25 24.95 6.85 20.15 6.0 19.45 5.1 18.55 Q5.1 18.3 4.9 18.4 L4.7 18.25 Q4.7 18.05 -2.6 14.4 -9.95 10.75 -9.95 10.0 -10.6 9.0 -10.6 8.0 L-10.25 7.0 -9.25 5.55 -7.5 6.0 Q-6.1 6.4 -6.1 6.95 L4.6 13.8 Q7.3 15.25 13.15 16.95 L14.9 17.45 18.95 18.6 19.3 18.6 21.0 19.4 Q22.35 20.0 22.55 21.25 L25.4 18.6 27.0 17.35 29.5 15.7 Q38.45 10.55 48.6 13.0 L50.35 13.5 50.95 13.7 Q53.7 14.6 56.15 16.05 M60.8 27.25 L61.35 28.15 Q66.45 36.45 64.2 45.85 61.95 55.2 53.6 60.3 45.35 65.4 35.9 63.15 26.55 60.9 21.45 52.55 16.45 44.4 18.6 35.15 L19.4 32.7 20.2 30.55 21.3 28.55 22.5 26.7 23.9 25.0 25.45 23.3 27.25 21.85 29.25 20.55 32.25 18.85 Q39.15 15.75 46.85 17.6 L47.65 17.8 Q55.95 20.05 60.8 27.25 M22.55 21.25 L21.05 23.2 19.8 25.3 18.1 28.6 17.6 29.75 M13.75 26.65 L14.85 25.3 16.45 22.85 18.15 19.9 18.95 18.6" fill="none" stroke="#000000" stroke-linecap="round" stroke-linejoin="round" stroke-opacity="0.4" stroke-width="0.05"/>
  </g>
</svg>
