<?xml version="1.0" encoding="UTF-8" standalone="no"?>
<svg xmlns:ffdec="https://www.free-decompiler.com/flash" xmlns:xlink="http://www.w3.org/1999/xlink" ffdec:objectType="shape" height="95.55px" width="232.2px" xmlns="http://www.w3.org/2000/svg">
  <g transform="matrix(1.0, 0.0, 0.0, 1.0, 34.35, 3.35)">
    <path d="M-33.1 -0.55 L-32.1 -3.35 -30.45 -2.8 -31.45 0.05 -33.1 -0.55 M115.8 49.3 Q118.25 47.4 121.35 47.25 L123.3 50.5 Q129.85 53.5 136.7 55.85 L149.05 60.0 163.1 64.5 Q170.2 66.75 177.55 68.15 L191.4 70.6 191.7 70.65 193.7 70.85 191.7 73.6 187.95 77.6 Q186.0 80.1 184.35 81.4 180.7 84.15 176.1 84.15 L169.7 82.65 Q168.65 82.65 166.0 83.55 163.4 84.45 161.4 84.45 157.65 84.45 151.25 80.0 144.85 75.5 140.6 75.5 135.15 75.5 132.4 71.75 129.8 66.85 127.95 64.55 127.45 64.0 123.15 62.15 L121.6 61.25 120.8 59.85 120.15 58.0 119.75 58.7 117.55 59.8 115.7 60.95 114.95 59.6 Q113.5 61.45 110.35 63.85 104.15 68.6 99.3 68.6 92.85 68.6 87.15 64.9 L85.8 64.0 Q83.55 61.25 82.9 57.75 L82.65 56.15 Q83.1 57.3 83.7 58.3 85.5 61.25 88.65 62.8 92.9 64.8 97.55 63.3 102.05 61.95 106.35 59.9 109.05 58.5 110.35 55.7 L110.9 54.55 111.7 54.8 111.7 54.7 112.5 55.05 112.8 54.55 114.2 52.35 114.3 52.1 114.2 52.35 114.15 52.35 114.3 52.1 115.8 49.4 116.1 49.45 115.9 49.35 115.8 49.3 M121.4 55.4 L128.5 58.5 Q133.95 60.9 141.25 63.4 148.55 65.9 162.4 69.65 176.2 73.4 176.2 71.65 L176.0 71.1 Q173.25 70.65 150.4 63.2 127.5 55.75 122.5 52.9 L122.45 52.85 121.4 55.4 121.3 55.55 120.15 58.0 121.3 55.55 121.4 55.4 M114.95 59.6 L114.9 59.55 114.05 57.8 112.8 54.55 114.05 57.8 114.9 59.55 114.95 59.6 M123.3 50.5 L123.05 51.2 122.5 52.9 123.05 51.2 123.3 50.5" fill="#e0e8eb" fill-rule="evenodd" stroke="none"/>
    <path d="M193.7 70.85 L197.85 71.7 Q193.55 79.05 187.9 85.2 185.05 88.25 181.1 89.8 176.5 91.7 171.5 92.0 165.55 92.6 159.7 91.3 L154.05 90.25 Q149.25 89.4 144.95 87.05 140.35 84.6 136.35 81.5 127.25 74.35 121.3 64.6 119.4 68.6 115.35 71.25 112.1 73.45 108.25 73.75 101.75 74.05 95.85 71.45 90.15 68.95 86.15 64.4 L85.8 64.0 87.15 64.9 Q92.85 68.6 99.3 68.6 104.15 68.6 110.35 63.85 113.5 61.45 114.95 59.6 L115.7 60.95 117.55 59.8 119.75 58.7 120.15 58.0 120.8 59.85 121.6 61.25 123.15 62.15 Q127.45 64.0 127.95 64.55 129.8 66.85 132.4 71.75 135.15 75.5 140.6 75.5 144.85 75.5 151.25 80.0 157.65 84.45 161.4 84.45 163.4 84.45 166.0 83.55 168.65 82.65 169.7 82.65 L176.1 84.15 Q180.7 84.15 184.35 81.4 186.0 80.1 187.95 77.6 L191.7 73.6 193.7 70.85 M-32.7 3.45 L-34.35 2.9 -33.1 -0.55 -31.45 0.05 -32.7 3.45 M122.45 52.85 L122.5 52.9 Q127.5 55.75 150.4 63.2 173.25 70.65 176.0 71.1 L176.2 71.65 Q176.2 73.4 162.4 69.65 148.55 65.9 141.25 63.4 133.95 60.9 128.5 58.5 L121.4 55.4 122.45 52.85" fill="#b8c9cf" fill-rule="evenodd" stroke="none"/>
    <path d="M110.9 54.55 L-32.7 3.45 -31.45 0.05 81.45 40.45 114.3 52.1 114.15 52.35 114.2 52.35 112.8 54.55 112.5 55.05 111.7 54.7 111.7 54.8 110.9 54.55" fill="#000000" fill-rule="evenodd" stroke="none"/>
    <path d="M115.8 49.4 L115.9 49.35 116.1 49.45 115.8 49.4" fill="#725327" fill-rule="evenodd" stroke="none"/>
    <path d="M-30.45 -2.8 L115.8 49.3 115.9 49.35 115.8 49.4 114.3 52.1 81.45 40.45 -31.45 0.05 -30.45 -2.8" fill="#6b5a50" fill-rule="evenodd" stroke="none"/>
    <path d="M-33.1 -0.55 L-32.1 -3.35 -30.45 -2.8 115.8 49.3 Q118.25 47.4 121.35 47.25 L123.3 50.5 Q129.85 53.5 136.7 55.85 L149.05 60.0 163.1 64.5 Q170.2 66.75 177.55 68.15 L191.4 70.6 191.7 70.65 193.7 70.85 197.85 71.7 Q193.55 79.05 187.9 85.2 185.05 88.25 181.1 89.8 176.5 91.7 171.5 92.0 165.55 92.6 159.7 91.3 L154.05 90.25 Q149.25 89.4 144.95 87.05 140.35 84.6 136.35 81.5 127.25 74.35 121.3 64.6 119.4 68.6 115.35 71.25 112.1 73.45 108.25 73.75 101.75 74.05 95.85 71.45 90.15 68.95 86.15 64.4 L85.8 64.0 Q83.55 61.25 82.9 57.75 L82.65 56.15 Q83.1 57.3 83.7 58.3 85.5 61.25 88.65 62.8 92.9 64.8 97.55 63.3 102.05 61.95 106.35 59.9 109.05 58.5 110.35 55.7 L110.9 54.55 -32.7 3.45 -34.35 2.9 -33.1 -0.55 M-31.45 0.05 L-30.45 -2.8 M-32.7 3.45 L-31.45 0.05 M114.3 52.1 L115.8 49.4 M115.9 49.35 L115.8 49.3 M120.15 58.0 L119.75 58.7 117.55 59.8 115.7 60.95 114.95 59.6 114.9 59.55 114.05 57.8 112.8 54.55 114.2 52.35 114.3 52.1 M122.45 52.85 L121.4 55.4 121.3 55.55 120.15 58.0 M116.1 49.45 L115.9 49.35 M111.7 54.7 L112.5 55.05 112.8 54.55 M110.9 54.55 L111.7 54.8 M122.5 52.9 L123.05 51.2 123.3 50.5" fill="none" stroke="#000000" stroke-linecap="round" stroke-linejoin="round" stroke-opacity="0.4" stroke-width="0.05"/>
  </g>
</svg>
