<?xml version="1.0" encoding="UTF-8" standalone="no"?>
<svg xmlns:ffdec="https://www.free-decompiler.com/flash" xmlns:xlink="http://www.w3.org/1999/xlink" ffdec:objectType="shape" height="66.45px" width="90.0px" xmlns="http://www.w3.org/2000/svg">
  <g transform="matrix(1.0, 0.0, 0.0, 1.0, 23.65, -4.25)">
    <path d="M49.75 43.95 Q47.5 43.15 47.3 42.8 L47.0 43.4 33.9 36.0 36.15 35.7 49.15 42.1 49.25 42.0 49.9 41.5 50.75 42.2 49.75 43.95 M45.3 68.55 L49.2 61.75 57.35 47.6 59.45 43.95 59.85 43.25 59.4 43.05 58.95 42.8 64.9 43.05 49.2 70.7 45.3 68.55 M-12.9 14.55 L-12.65 14.05 -12.3 13.2 -11.75 13.2 -9.8 14.4 -8.7 12.75 -7.45 12.85 Q-6.65 14.05 -7.75 14.95 -10.45 17.3 -12.9 14.55 M10.7 22.05 L11.55 21.5 12.05 21.9 9.8 24.9 Q4.7 24.3 3.3 19.75 L3.75 19.95 9.85 22.75 10.7 22.05 M28.65 31.75 L31.6 31.2 Q29.55 34.25 26.0 33.2 21.6 31.8 18.4 28.25 L18.85 27.35 28.65 31.75 M4.45 35.3 L4.9 34.55 6.5 35.1 9.05 33.75 Q9.55 35.7 7.7 36.45 5.3 37.5 4.45 35.3 M32.65 61.65 L32.4 61.5 30.1 60.25 29.85 59.2 Q29.85 57.3 32.85 58.15 35.8 59.0 35.8 60.55 35.8 61.7 33.9 61.7 L32.65 61.65 M21.25 55.4 L-5.15 40.95 -2.7 36.7 24.4 51.1 21.25 55.4 M42.2 66.85 L39.75 64.65 Q39.85 63.85 40.45 63.45 L41.55 63.2 Q44.0 63.75 45.7 66.05 L45.85 67.1 45.0 67.8 43.25 67.45 42.2 66.85 M45.6 59.75 L46.45 57.05 44.5 55.65 43.5 57.1 42.7 56.4 43.3 54.8 Q41.85 54.1 42.65 53.25 L44.2 53.3 47.3 49.7 45.2 54.45 45.45 54.0 47.35 55.55 49.85 52.9 49.95 53.35 Q49.95 55.3 48.75 56.55 L50.8 58.65 49.7 58.95 47.9 58.0 46.45 60.2 45.6 59.75" fill="#c7c68d" fill-rule="evenodd" stroke="none"/>
    <path d="M47.3 42.8 Q47.5 43.15 49.75 43.95 L50.75 42.2 49.9 41.5 49.25 42.0 49.15 42.1 36.15 35.7 33.9 36.0 47.0 43.4 47.3 42.8 M59.45 43.95 L57.35 47.6 49.2 61.75 45.3 68.55 43.25 67.45 45.0 67.8 45.85 67.1 45.7 66.05 Q44.0 63.75 41.55 63.2 L40.45 63.45 Q39.85 63.85 39.75 64.65 L42.2 66.85 32.65 61.65 33.9 61.7 Q35.8 61.7 35.8 60.55 35.8 59.0 32.85 58.15 29.85 57.3 29.85 59.2 L30.1 60.25 21.25 55.4 24.4 51.1 -2.7 36.7 -5.15 40.95 -21.1 32.25 -23.65 30.85 -11.55 5.25 -9.9 4.25 47.35 30.85 66.35 40.5 64.9 43.05 58.95 42.8 59.4 43.05 59.85 43.25 59.45 43.95 M57.35 47.6 Q52.0 44.75 49.75 43.95 52.0 44.75 57.35 47.6 M49.25 42.0 L50.8 38.95 59.4 43.05 50.8 38.95 49.25 42.0 M-12.9 14.55 L-21.1 32.25 -12.9 14.55 Q-10.45 17.3 -7.75 14.95 -6.65 14.05 -7.45 12.85 L-8.7 12.75 -9.8 14.4 -11.75 13.2 -12.3 13.2 -12.65 14.05 -12.9 14.55 M50.8 38.95 L36.25 32.0 30.2 29.1 15.65 22.15 11.8 20.3 -4.1 12.7 -7.8 10.95 -10.65 9.6 -12.2 13.05 -12.3 13.2 -12.2 13.05 -10.65 9.6 -7.8 10.95 -4.1 12.7 11.8 20.3 15.65 22.15 30.2 29.1 36.25 32.0 50.8 38.95 M3.75 19.95 L3.3 19.75 Q4.7 24.3 9.8 24.9 L12.05 21.9 11.55 21.5 10.7 22.05 9.85 22.75 3.75 19.95 -5.55 15.4 -4.1 12.7 -5.55 15.4 3.75 19.95 M15.65 22.15 L14.5 25.0 18.85 27.35 14.5 25.0 15.65 22.15 M11.8 20.3 L11.4 20.75 Q11.75 20.6 11.05 21.6 L10.7 22.05 11.05 21.6 Q11.75 20.6 11.4 20.75 L11.8 20.3 M18.85 27.35 L18.4 28.25 Q21.6 31.8 26.0 33.2 29.55 34.25 31.6 31.2 L28.65 31.75 18.85 27.35 M3.9 23.85 Q2.3 24.75 3.1 26.4 3.7 27.7 5.45 27.4 L6.8 26.35 5.45 27.4 Q3.7 27.7 3.1 26.4 2.3 24.75 3.9 23.85 M4.45 35.3 Q5.3 37.5 7.7 36.45 9.55 35.7 9.05 33.75 L6.5 35.1 4.9 34.55 4.45 35.3 M35.45 44.1 L34.7 45.2 32.2 51.55 37.35 54.05 Q40.25 51.05 41.1 46.5 L35.45 44.1 41.1 46.5 Q40.25 51.05 37.35 54.05 L32.2 51.55 34.7 45.2 35.45 44.1 M21.95 41.2 Q20.65 42.25 21.5 43.05 22.25 43.7 23.9 43.85 22.25 43.7 21.5 43.05 20.65 42.25 21.95 41.2 M28.65 31.75 L30.2 29.1 28.65 31.75 M23.8 33.65 L22.8 34.45 Q23.75 36.45 26.05 36.55 23.75 36.45 22.8 34.45 L23.8 33.65 M36.25 32.0 L35.05 35.15 36.15 35.7 35.05 35.15 36.25 32.0 M11.35 37.6 L10.85 38.65 11.45 38.95 Q13.85 39.15 16.05 38.25 13.85 39.15 11.45 38.95 L10.85 38.65 11.35 37.6 M27.4 51.3 L28.15 51.7 Q30.35 52.8 31.2 54.8 L28.6 58.15 31.2 54.8 Q30.35 52.8 28.15 51.7 L27.4 51.3 M46.45 60.2 L47.9 58.0 49.7 58.95 50.8 58.65 48.75 56.55 Q49.95 55.3 49.95 53.35 L49.85 52.9 47.35 55.55 45.45 54.0 45.2 54.45 47.3 49.7 44.2 53.3 42.65 53.25 Q41.85 54.1 43.3 54.8 L42.7 56.4 43.5 57.1 44.5 55.65 46.45 57.05 45.6 59.75 46.45 60.2 49.2 61.75 46.45 60.2 M47.0 43.4 L40.15 56.7 45.6 59.75 40.15 56.7 47.0 43.4 M-12.5 18.75 L-12.25 19.3 -8.95 20.55 -7.85 19.1 -8.95 20.55 -12.25 19.3 -12.5 18.75 M-12.2 13.05 L-11.75 13.2 -12.2 13.05 M-10.95 31.5 L-11.25 31.35 Q-13.7 29.65 -16.8 30.1 -13.7 29.65 -11.25 31.35 L-10.95 31.5 M-6.35 28.5 L-7.0 29.6 Q-7.0 30.15 -6.0 30.7 -4.8 31.4 -3.25 31.15 -4.8 31.4 -6.0 30.7 -7.0 30.15 -7.0 29.6 L-6.35 28.5 M-6.4 35.65 Q-7.15 34.75 -8.25 34.4 -10.4 33.6 -11.05 35.7 -10.4 33.6 -8.25 34.4 -7.15 34.75 -6.4 35.65 M-8.7 12.75 L-7.8 10.95 -8.7 12.75 M-3.7 20.7 Q-5.05 21.55 -5.05 22.85 -5.05 23.3 -4.1 23.75 -2.95 24.3 -1.8 24.05 -2.95 24.3 -4.1 23.75 -5.05 23.3 -5.05 22.85 -5.05 21.55 -3.7 20.7" fill="#ffffcc" fill-rule="evenodd" stroke="none"/>
    <path d="M47.3 42.8 Q47.5 43.15 49.75 43.95 52.0 44.75 57.35 47.6 L49.2 61.75 45.3 68.55 49.2 70.7 64.9 43.05 66.35 40.5 47.35 30.85 -9.9 4.25 -11.55 5.25 -23.65 30.85 -21.1 32.25 -12.9 14.55 M49.25 42.0 L49.15 42.1 36.15 35.7 35.05 35.15 36.25 32.0 50.8 38.95 49.25 42.0 M59.45 43.95 L57.35 47.6 M59.4 43.05 L59.85 43.25 M59.4 43.05 L50.8 38.95 M-12.65 14.05 L-12.3 13.2 -12.2 13.05 -10.65 9.6 -7.8 10.95 -4.1 12.7 11.8 20.3 15.65 22.15 30.2 29.1 36.25 32.0 M3.75 19.95 L-5.55 15.4 -4.1 12.7 M3.75 19.95 L9.85 22.75 10.7 22.05 11.05 21.6 Q11.75 20.6 11.4 20.75 L11.8 20.3 M18.85 27.35 L14.5 25.0 15.65 22.15 M28.65 31.75 L18.85 27.35 M6.8 26.35 L5.45 27.4 Q3.7 27.7 3.1 26.4 2.3 24.75 3.9 23.85 M16.05 38.25 Q13.85 39.15 11.45 38.95 L10.85 38.65 11.35 37.6 M26.05 36.55 Q23.75 36.45 22.8 34.45 L23.8 33.65 M30.2 29.1 L28.65 31.75 M23.9 43.85 Q22.25 43.7 21.5 43.05 20.65 42.25 21.95 41.2 M35.45 44.1 L41.1 46.5 Q40.25 51.05 37.35 54.05 L32.2 51.55 34.7 45.2 35.45 44.1 M30.1 60.25 L32.4 61.5 M30.1 60.25 L21.25 55.4 -5.15 40.95 -21.1 32.25 M21.25 55.4 L24.4 51.1 -2.7 36.7 -5.15 40.95 M28.6 58.15 L31.2 54.8 Q30.35 52.8 28.15 51.7 L27.4 51.3 M42.2 66.85 L43.25 67.45 45.3 68.55 M45.6 59.75 L46.45 60.2 49.2 61.75 M45.6 59.75 L40.15 56.7 47.0 43.4 M42.2 66.85 L32.65 61.65 M-11.75 13.2 L-12.2 13.05 M-7.85 19.1 L-8.95 20.55 -12.25 19.3 -12.5 18.75 M-9.8 14.4 L-11.75 13.2 M-1.8 24.05 Q-2.95 24.3 -4.1 23.75 -5.05 23.3 -5.05 22.85 -5.05 21.55 -3.7 20.7 M-7.8 10.95 L-8.7 12.75 M-11.05 35.7 Q-10.4 33.6 -8.25 34.4 -7.15 34.75 -6.4 35.65 M-3.25 31.15 Q-4.8 31.4 -6.0 30.7 -7.0 30.15 -7.0 29.6 L-6.35 28.5 M-16.8 30.1 Q-13.7 29.65 -11.25 31.35 L-10.95 31.5" fill="none" stroke="#000000" stroke-linecap="round" stroke-linejoin="round" stroke-opacity="0.4" stroke-width="0.05"/>
  </g>
</svg>
