<?xml version="1.0" encoding="UTF-8" standalone="no"?>
<svg xmlns:ffdec="https://www.free-decompiler.com/flash" xmlns:xlink="http://www.w3.org/1999/xlink" ffdec:objectType="shape" height="15.7px" width="10.75px" xmlns="http://www.w3.org/2000/svg">
  <g transform="matrix(1.0, 0.0, 0.0, 1.0, 36.15, 31.15)">
    <path d="M-30.2 -30.0 L-30.8 -30.2 -30.85 -30.6 Q-30.85 -30.8 -29.9 -31.15 L-29.7 -31.0 -29.6 -30.6 -29.7 -30.2 -29.8 -30.1 -30.2 -30.0 M-26.3 -16.4 L-25.5 -16.5 Q-25.4 -16.55 -25.4 -16.05 L-25.45 -15.55 -25.95 -15.45 -26.55 -15.9 -26.3 -16.4 M-34.55 -19.85 Q-34.85 -19.5 -35.2 -19.5 -36.2 -19.5 -36.15 -20.5 -36.15 -21.5 -35.2 -21.3 -34.25 -21.15 -34.25 -20.4 -34.25 -20.15 -34.55 -19.85" fill="#ffffff" fill-rule="evenodd" stroke="none"/>
  </g>
</svg>
