<?xml version="1.0" encoding="UTF-8" standalone="no"?>
<svg xmlns:ffdec="https://www.free-decompiler.com/flash" xmlns:xlink="http://www.w3.org/1999/xlink" ffdec:objectType="shape" height="24.65px" width="40.7px" xmlns="http://www.w3.org/2000/svg">
  <g transform="matrix(1.0, 0.0, 0.0, 1.0, -10.55, 26.95)">
    <path d="M12.0 -26.2 L14.45 -22.65 Q15.2 -21.4 17.0 -20.1 19.2 -18.55 22.05 -17.7 L24.35 -16.9 27.3 -16.25 35.65 -15.85 44.15 -15.35 Q48.75 -14.25 50.3 -12.9 51.25 -12.05 51.25 -10.55 51.25 -8.1 46.1 -6.15 41.65 -4.45 38.05 -4.45 L32.4 -4.85 Q29.95 -4.85 28.45 -3.85 L25.9 -2.35 25.75 -2.3 Q25.6 -2.35 25.6 -2.65 25.6 -4.65 29.35 -5.5 L37.6 -6.4 Q49.55 -7.25 49.55 -10.7 49.55 -12.55 46.2 -13.25 L38.1 -13.95 Q23.95 -14.5 18.95 -17.0 16.75 -18.1 13.75 -21.15 10.55 -24.4 10.55 -25.95 10.55 -27.85 12.0 -26.2" fill="#545656" fill-rule="evenodd" stroke="none"/>
  </g>
</svg>
