<?xml version="1.0" encoding="UTF-8" standalone="no"?>
<svg xmlns:ffdec="https://www.free-decompiler.com/flash" xmlns:xlink="http://www.w3.org/1999/xlink" ffdec:objectType="shape" height="37.15px" width="36.2px" xmlns="http://www.w3.org/2000/svg">
  <g transform="matrix(1.0, 0.0, 0.0, 1.0, 25.1, -7.65)">
    <path d="M9.3 17.55 L9.05 17.65 Q7.2 18.4 6.15 18.4 L5.1 18.05 4.45 17.7 2.75 16.1 2.6 15.75 Q2.6 15.65 0.0 14.05 L-4.65 12.15 -7.5 11.3 -8.5 11.0 -9.3 11.4 -8.8 11.15 -10.15 10.9 Q-12.3 10.65 -12.3 9.75 L-12.5 8.8 -11.65 7.95 -9.65 7.65 Q-3.0 9.6 2.35 12.0 6.05 13.6 7.65 14.85 8.7 15.75 9.15 16.95 L9.3 17.15 9.3 17.55 M3.1 20.15 L2.9 20.75 Q3.2 21.85 4.25 22.5 5.25 23.15 6.3 23.15 L7.55 23.0 8.2 21.95 Q10.1 22.7 10.1 22.95 L10.3 23.35 10.5 23.95 10.65 24.45 11.1 27.35 Q11.1 33.15 6.45 39.3 2.45 44.55 0.8 44.55 L0.25 44.8 -0.25 44.05 Q-1.2 42.7 -1.2 41.55 L-1.35 40.1 -0.05 36.7 1.25 33.45 Q1.25 33.0 -2.55 31.1 -6.4 29.2 -10.8 27.2 -15.15 25.2 -17.7 23.65 L-20.9 21.55 Q-21.55 21.05 -22.95 20.05 L-21.95 18.15 -19.5 14.6 Q-17.7 12.25 -17.5 12.35 L-17.3 12.3 -17.0 11.85 -16.1 11.75 -15.6 12.0 -15.1 12.35 -14.25 12.75 -14.35 13.15 -14.45 13.4 Q-14.3 14.3 -13.95 14.65 -13.5 15.15 -12.65 15.15 L-10.85 14.3 -10.9 14.35 -10.1 14.7 -0.6 18.65 3.1 20.15 M9.55 28.5 L9.5 25.8 9.5 24.85 9.4 24.7 9.1 24.75 Q8.9 24.75 8.5 25.0 L8.3 25.35 2.25 35.0 Q-0.05 38.75 0.2 43.35 3.85 41.6 6.7 36.0 9.55 30.4 9.55 28.5" fill="#ffffcc" fill-rule="evenodd" stroke="none"/>
    <path d="M2.75 16.1 L4.45 17.7 5.1 18.05 6.15 18.4 Q7.2 18.4 9.05 17.65 L9.3 17.55 9.2 18.8 Q8.95 20.45 8.2 21.95 L7.55 23.0 6.3 23.15 Q5.25 23.15 4.25 22.5 3.2 21.85 2.9 20.75 L3.1 20.15 3.55 18.35 3.55 18.05 3.1 16.8 2.75 16.1 M-12.5 8.8 L-12.3 9.75 Q-12.3 10.65 -10.15 10.9 L-8.8 11.15 -9.3 11.4 -9.7 11.55 -9.7 11.6 -10.85 14.3 -12.65 15.15 Q-13.5 15.15 -13.95 14.65 -14.3 14.3 -14.45 13.4 L-14.35 13.15 -14.25 12.75 -13.2 10.1 -13.0 9.75 -13.0 9.65 -12.5 8.8 M0.25 44.8 L0.2 44.8 -1.7 44.15 -6.95 41.7 Q-13.25 38.65 -16.85 36.45 L-21.35 33.4 Q-24.3 30.75 -24.9 28.75 -25.55 26.75 -24.2 23.15 L-23.35 21.0 -22.95 20.05 Q-21.55 21.05 -20.9 21.55 L-17.7 23.65 Q-15.15 25.2 -10.8 27.2 -6.4 29.2 -2.55 31.1 1.25 33.0 1.25 33.45 L-0.05 36.7 -1.35 40.1 -1.2 41.55 Q-1.2 42.7 -0.25 44.05 L0.25 44.8" fill="#cbb992" fill-rule="evenodd" stroke="none"/>
    <path d="M9.55 28.5 Q9.55 30.4 6.7 36.0 3.85 41.6 0.2 43.35 -0.05 38.75 2.25 35.0 L8.3 25.35 8.5 25.0 Q8.9 24.75 9.1 24.75 L9.4 24.7 9.5 24.85 9.5 25.8 9.55 28.5" fill="#936b31" fill-rule="evenodd" stroke="none"/>
    <path d="M9.3 17.55 L9.3 17.15 9.15 16.95 Q8.7 15.75 7.65 14.85 6.05 13.6 2.35 12.0 -3.0 9.6 -9.65 7.65 L-11.65 7.95 -12.5 8.8 -13.0 9.65 -13.0 9.75 -13.2 10.1 -14.25 12.75 -14.35 13.15 -14.45 13.4 Q-14.3 14.3 -13.95 14.65 -13.5 15.15 -12.65 15.15 L-10.85 14.3 -10.9 14.35 -10.1 14.7 -0.6 18.65 3.1 20.15 2.9 20.75 Q3.2 21.85 4.25 22.5 5.25 23.15 6.3 23.15 L7.55 23.0 8.2 21.95 Q8.95 20.45 9.2 18.8 L9.3 17.55 M-9.3 11.4 L-8.5 11.0 -7.5 11.3 -4.65 12.15 0.0 14.05 Q2.6 15.65 2.6 15.75 L2.75 16.1 3.1 16.8 3.55 18.05 3.55 18.35 3.1 20.15 M8.2 21.95 Q10.1 22.7 10.1 22.95 L10.3 23.35 10.5 23.95 10.65 24.45 11.1 27.35 Q11.1 33.15 6.45 39.3 2.45 44.55 0.8 44.55 L0.25 44.8 0.2 44.8 -1.7 44.15 -6.95 41.7 Q-13.25 38.65 -16.85 36.45 L-21.35 33.4 Q-24.3 30.75 -24.9 28.75 -25.55 26.75 -24.2 23.15 L-23.35 21.0 -22.95 20.05 -21.95 18.15 -19.5 14.6 Q-17.7 12.25 -17.5 12.35 L-17.3 12.3 -17.0 11.85 -16.1 11.75 -15.6 12.0 -15.1 12.35 -14.25 12.75 M9.55 28.5 L9.5 25.8 9.5 24.85 9.4 24.7 9.1 24.75 Q8.9 24.75 8.5 25.0 L8.3 25.35 2.25 35.0 Q-0.05 38.75 0.2 43.35 3.85 41.6 6.7 36.0 9.55 30.4 9.55 28.5 M-9.3 11.4 L-9.7 11.55 -9.7 11.6 -10.85 14.3" fill="none" stroke="#000000" stroke-linecap="round" stroke-linejoin="round" stroke-opacity="0.4" stroke-width="0.05"/>
  </g>
</svg>
