<?xml version="1.0" encoding="UTF-8" standalone="no"?>
<svg xmlns:ffdec="https://www.free-decompiler.com/flash" xmlns:xlink="http://www.w3.org/1999/xlink" ffdec:objectType="shape" height="17.55px" width="42.45px" xmlns="http://www.w3.org/2000/svg">
  <g transform="matrix(1.0, 0.0, 0.0, 1.0, 56.5, 16.6)">
    <path d="M-53.2 -1.65 Q-53.2 -5.55 -49.65 -6.3 L-49.55 -6.3 Q-46.15 -7.05 -46.15 -2.95 -46.15 -1.8 -46.95 -0.65 -47.9 0.75 -49.55 0.95 L-50.05 0.95 Q-51.7 0.95 -52.6 -0.2 -53.2 -1.0 -53.2 -1.65 M-53.9 -9.4 Q-54.55 -8.35 -55.25 -8.35 -56.5 -8.35 -56.5 -9.55 -56.5 -11.65 -54.9 -12.15 -53.3 -12.65 -53.3 -10.75 -53.3 -10.3 -53.9 -9.4 M-45.45 -7.1 Q-46.15 -8.6 -46.3 -10.1 -46.3 -12.65 -44.6 -14.6 -42.15 -17.45 -37.05 -16.25 -35.5 -15.45 -34.75 -14.05 -34.35 -13.4 -34.0 -11.9 L-33.2 -9.35 -33.0 -7.65 -33.2 -6.65 -33.05 -6.7 -31.95 -6.65 -32.1 -6.05 -31.3 -8.6 Q-29.95 -10.45 -27.6 -11.2 L-26.25 -11.35 -26.6 -11.2 -25.6 -11.6 Q-24.15 -12.1 -23.15 -9.95 L-23.0 -9.4 Q-20.2 -9.35 -18.9 -7.4 L-18.8 -7.15 Q-17.8 -7.1 -17.3 -5.6 -15.15 -5.2 -14.6 -4.85 L-14.4 -4.7 Q-14.05 -4.35 -14.05 -3.7 L-14.05 -3.65 Q-14.05 -3.1 -14.6 -2.55 -15.3 -1.8 -16.5 -1.8 -17.3 -1.8 -17.4 -2.3 L-17.4 -2.55 -17.35 -2.95 -18.2 -2.7 -18.8 -2.5 -18.8 -2.3 Q-18.8 -0.9 -21.8 -0.15 L-28.4 0.5 Q-31.6 0.5 -32.5 -0.95 -32.95 -1.7 -32.75 -2.5 L-32.7 -2.95 -33.25 -2.85 Q-34.7 -2.85 -34.75 -4.6 L-34.6 -5.5 -34.15 -5.6 -34.8 -5.5 Q-35.05 -5.5 -35.3 -5.7 L-35.8 -5.9 -38.3 -5.0 Q-40.85 -4.15 -41.2 -4.15 -44.05 -4.15 -45.45 -7.1 M-39.15 -10.25 L-39.1 -10.2 Q-38.55 -10.4 -38.25 -11.0 L-38.65 -11.45 -39.15 -11.1 -39.15 -10.25" fill="#ba9501" fill-rule="evenodd" stroke="none"/>
  </g>
</svg>
