<?xml version="1.0" encoding="UTF-8" standalone="no"?>
<svg xmlns:ffdec="https://www.free-decompiler.com/flash" xmlns:xlink="http://www.w3.org/1999/xlink" ffdec:objectType="shape" height="40.3px" width="63.3px" xmlns="http://www.w3.org/2000/svg">
  <g transform="matrix(1.0, 0.0, 0.0, 1.0, 10.05, -1.55)">
    <path d="M52.35 41.75 L52.2 41.75 51.8 41.85 44.75 40.7 44.5 40.55 9.7 18.5 9.5 24.25 24.45 33.7 Q24.7 33.85 24.75 34.25 L24.6 34.65 23.85 35.85 23.55 36.15 23.2 36.2 17.25 35.45 17.05 35.3 4.55 27.4 4.25 27.05 4.05 26.9 3.95 26.55 4.6 15.2 4.25 15.0 7.1 10.5 7.3 10.65 8.7 10.0 15.8 6.2 33.85 17.65 34.35 18.6 34.4 18.95 34.4 19.25 33.6 20.45 33.2 20.85 32.7 20.65 17.75 11.2 12.45 13.9 15.9 16.1 14.75 17.9 52.35 41.75 M-7.25 7.75 Q-8.45 6.95 -9.8 6.1 L-10.05 5.75 -10.0 5.15 -7.85 1.85 Q-7.7 1.6 -7.45 1.65 L-6.95 1.6 Q-5.6 2.45 -4.4 3.25 L-7.25 7.75" fill="#b8c9cf" fill-rule="evenodd" stroke="none"/>
    <path d="M15.9 16.1 L52.95 39.6 53.25 40.1 53.15 40.55 52.5 41.55 52.35 41.75 14.75 17.9 15.9 16.1 M15.8 6.2 L17.4 5.35 17.8 5.3 18.05 5.3 18.5 5.4 31.0 13.3 31.1 13.55 33.85 17.65 15.8 6.2" fill="#e0e8eb" fill-rule="evenodd" stroke="none"/>
    <path d="M4.25 15.0 L-7.25 7.75 -4.4 3.25 7.1 10.5 4.25 15.0" fill="#de9f10" fill-rule="evenodd" stroke="none"/>
    <path d="M15.9 16.1 L52.95 39.6 53.25 40.1 53.15 40.55 52.5 41.55 52.35 41.75 52.2 41.75 51.8 41.85 44.75 40.7 44.5 40.55 9.7 18.5 9.5 24.25 24.45 33.7 Q24.7 33.85 24.75 34.25 L24.6 34.65 23.85 35.85 23.55 36.15 23.2 36.2 17.25 35.45 17.05 35.3 4.55 27.4 4.25 27.05 4.05 26.9 3.95 26.55 4.6 15.2 4.25 15.0 -7.25 7.75 Q-8.45 6.95 -9.8 6.1 L-10.05 5.75 -10.0 5.15 -7.85 1.85 Q-7.7 1.6 -7.45 1.65 L-6.95 1.6 Q-5.6 2.45 -4.4 3.25 L7.1 10.5 8.7 10.0 15.8 6.2 17.4 5.35 17.8 5.3 18.05 5.3 18.5 5.4 31.0 13.3 31.1 13.55 33.85 17.65 34.35 18.6 34.4 18.95 34.4 19.25 33.6 20.45 33.2 20.85 32.7 20.65 17.75 11.2 12.45 13.9 15.9 16.1 M7.1 10.5 L7.3 10.65 8.7 10.0" fill="none" stroke="#000000" stroke-linecap="round" stroke-linejoin="round" stroke-opacity="0.4" stroke-width="0.05"/>
  </g>
</svg>
