<?xml version="1.0" encoding="UTF-8" standalone="no"?>
<svg xmlns:ffdec="https://www.free-decompiler.com/flash" xmlns:xlink="http://www.w3.org/1999/xlink" ffdec:objectType="shape" height="96.35px" width="145.65px" xmlns="http://www.w3.org/2000/svg">
  <g transform="matrix(1.0, 0.0, 0.0, 1.0, 23.05, 1.7)">
    <path d="M-16.3 5.4 L-18.15 4.7 -16.85 0.7 Q-16.55 -0.15 -15.65 -0.5 L-13.0 -1.7 Q-11.3 -1.45 -11.55 0.15 L-11.7 2.05 -4.0 7.1 -9.3 6.15 Q-11.15 5.65 -12.95 5.45 -14.65 5.05 -16.3 5.4 -14.65 5.05 -12.95 5.45 -11.15 5.65 -9.3 6.15 L-4.0 7.1 0.85 9.7 Q4.7 11.8 8.75 13.7 L16.2 17.35 23.15 20.8 30.35 24.25 37.7 27.85 Q41.85 27.8 45.8 29.5 L52.9 32.6 59.55 36.1 66.85 40.15 Q70.7 42.15 74.75 43.95 77.95 45.25 81.3 46.15 L85.5 47.1 90.55 45.95 98.95 43.0 106.15 40.35 109.5 39.6 Q113.8 38.6 117.95 39.5 118.45 39.65 118.95 39.95 120.75 40.95 121.5 42.9 122.45 45.25 122.55 48.05 122.75 52.6 121.5 57.0 L119.9 62.0 Q118.5 65.9 116.55 69.75 114.75 73.3 112.2 76.45 L108.8 80.45 103.9 85.35 Q103.5 84.65 103.7 83.85 L103.5 83.95 103.2 84.15 103.15 84.15 103.0 84.15 Q102.2 83.95 102.2 83.1 102.2 82.4 102.9 81.15 L105.2 77.75 108.6 73.55 113.15 67.65 113.95 66.7 113.5 67.75 115.7 62.25 118.15 54.85 Q118.75 52.65 118.7 50.5 118.65 48.4 117.95 46.5 L116.45 45.75 112.2 46.0 112.2 46.1 112.15 46.0 Q109.95 46.85 108.25 48.2 L106.75 49.4 Q104.2 51.7 100.95 55.55 94.35 63.3 91.0 69.3 L87.35 75.6 87.1 75.55 86.3 75.25 86.3 75.2 86.05 74.6 85.75 73.25 Q85.65 72.5 85.85 71.7 86.3 69.9 87.05 68.3 88.7 64.95 90.75 61.95 L93.95 57.45 Q92.3 59.4 90.05 60.5 L89.85 60.6 89.15 61.2 88.8 62.0 Q87.3 62.6 85.85 63.4 L85.2 63.65 83.3 63.75 82.25 63.5 82.05 63.1 82.4 62.05 Q82.85 60.85 82.3 59.75 L77.75 60.05 Q77.15 58.95 76.95 57.5 L76.45 53.5 Q76.15 51.35 74.45 50.1 72.35 48.6 70.1 47.65 L67.3 46.6 Q64.4 43.6 60.8 41.3 L56.25 38.45 48.2 33.55 42.0 30.1 38.15 28.15 37.7 27.85 38.15 28.15 42.0 30.1 48.2 33.55 56.25 38.45 60.8 41.3 Q64.4 43.6 67.3 46.6 L61.75 44.9 59.25 43.0 57.3 41.7 56.75 41.4 56.3 41.15 56.15 41.05 50.5 37.85 Q51.8 37.85 51.8 37.0 51.8 36.0 49.85 35.05 L46.65 34.9 48.6 36.55 49.95 37.55 49.7 37.4 44.6 34.7 Q41.55 33.1 38.35 31.6 L34.8 29.8 28.2 26.5 22.35 23.35 22.15 23.25 21.75 23.0 21.7 23.0 19.85 22.0 17.75 20.85 14.45 19.1 11.1 17.35 6.85 15.2 5.55 14.6 5.55 14.55 4.4 14.05 1.05 12.45 Q-2.25 11.0 -5.65 9.65 L-7.3 9.0 -7.85 8.8 -7.95 8.75 Q-10.4 7.9 -12.95 7.35 L-16.45 7.0 -20.15 6.8 Q-18.6 5.55 -16.3 5.4 M101.25 48.0 Q102.55 46.75 104.9 45.45 L106.7 44.55 Q110.15 43.1 112.75 41.25 L105.65 42.4 104.4 42.75 Q99.6 44.3 98.15 45.9 L94.8 50.2 Q92.35 53.5 92.35 54.1 L92.5 54.7 Q92.75 55.25 93.4 55.25 94.85 55.25 97.95 51.85 L101.25 48.0 M118.85 47.15 L117.95 46.5 118.85 47.15 M111.45 71.85 L111.45 71.9 111.55 71.75 111.45 71.85 M83.25 50.9 Q84.35 50.5 84.35 49.9 84.3 48.5 82.6 48.5 82.15 48.5 78.0 46.6 75.1 45.3 75.1 47.45 75.1 47.95 77.25 49.5 79.65 51.25 81.45 51.25 L83.25 50.9 M50.55 44.7 Q50.65 43.1 51.5 44.35 52.35 45.55 52.4 46.2 L52.35 46.6 51.4 49.3 Q50.4 51.9 50.4 55.15 L50.2 58.6 49.95 62.5 50.25 64.4 49.95 65.0 49.65 65.9 Q49.8 66.0 49.4 66.0 48.9 66.0 48.85 65.45 L48.9 64.85 48.4 61.85 48.45 61.65 48.85 59.85 48.9 58.35 49.5 50.1 49.45 49.7 50.0 48.15 50.4 46.75 50.7 45.6 50.7 45.45 50.7 45.3 50.7 45.15 50.55 44.7" fill="#fff7aa" fill-rule="evenodd" stroke="none"/>
    <path d="M103.9 85.35 L101.8 87.0 96.9 90.4 Q93.35 92.65 89.25 93.7 84.45 94.85 79.5 94.6 77.65 94.55 75.9 93.6 73.95 92.6 73.15 90.55 72.2 88.1 72.35 85.4 L72.8 78.95 73.2 73.8 73.5 68.65 73.4 63.45 Q73.35 62.3 72.2 61.0 71.2 62.5 69.8 63.4 68.15 64.4 65.95 64.55 L61.85 64.35 Q57.2 63.3 52.9 61.65 L50.5 60.75 50.1 67.15 50.3 70.35 48.15 69.9 48.8 70.05 49.1 69.85 49.45 69.15 Q49.45 68.1 47.05 67.2 44.65 66.3 44.65 67.9 L45.0 69.0 45.25 69.3 44.3 69.1 45.2 64.25 45.6 64.35 Q47.85 63.3 48.4 61.85 L48.9 64.85 48.85 65.45 Q48.9 66.0 49.4 66.0 49.8 66.0 49.65 65.9 L49.95 65.0 50.25 64.4 49.95 62.5 50.2 58.6 50.4 55.15 Q50.4 51.9 51.4 49.3 L52.35 46.6 51.1 55.15 50.65 59.0 59.0 60.3 Q59.2 61.4 60.65 61.65 L62.35 61.65 Q64.4 61.65 66.5 58.65 68.35 56.0 68.35 54.6 68.35 52.2 67.6 50.7 66.35 48.2 62.7 45.9 L59.9 43.5 59.25 43.0 61.75 44.9 67.3 46.6 68.3 47.65 Q69.9 49.5 71.1 51.55 71.8 52.35 72.1 53.15 L72.3 53.9 73.1 55.85 73.45 57.55 Q73.45 58.45 73.05 59.3 L72.9 59.7 72.9 59.8 Q73.55 62.75 77.2 62.75 L78.95 63.0 79.1 63.75 78.9 65.1 78.85 66.8 Q79.05 67.8 80.55 68.5 82.05 69.25 82.25 70.45 L82.95 74.65 Q83.85 77.35 86.1 77.35 L86.3 77.35 84.5 80.35 Q80.4 87.55 80.4 90.05 80.4 90.75 81.15 91.25 81.9 91.7 82.8 91.7 L86.2 90.75 87.25 90.95 90.15 90.25 93.25 87.95 98.4 84.6 102.15 81.75 102.9 81.15 Q102.2 82.4 102.2 83.1 102.2 83.95 103.0 84.15 L102.5 84.55 103.15 84.15 103.2 84.15 103.5 83.95 103.7 83.85 Q103.5 84.65 103.9 85.35 M46.15 58.9 L43.2 57.55 37.35 54.8 30.9 51.7 23.5 47.9 15.15 43.45 10.7 41.0 4.35 37.4 -1.3 34.15 -7.95 29.95 Q-12.0 27.3 -15.8 24.25 L-19.05 21.3 -21.85 17.7 Q-22.8 16.2 -23.05 14.55 -23.15 13.5 -22.75 12.5 -22.0 8.35 -20.35 6.95 L-20.15 6.8 -16.45 7.0 -12.95 7.35 Q-10.4 7.9 -7.95 8.75 L-8.15 8.7 Q-14.1 6.9 -14.1 8.95 L-10.85 10.4 -14.35 9.4 -19.0 8.55 Q-20.45 10.95 -20.75 13.65 -20.8 14.35 -20.45 15.05 L-19.0 17.15 -18.85 17.35 Q-18.45 19.45 -17.05 21.3 -14.85 24.25 -11.55 26.45 L-4.7 30.6 -1.05 32.75 6.05 37.0 Q9.5 39.15 13.55 40.8 L21.4 43.8 Q23.7 44.6 25.7 45.8 L32.05 49.95 31.95 50.4 37.6 52.75 37.2 53.55 42.15 54.15 42.0 55.55 42.9 55.7 43.45 56.45 46.3 56.75 46.15 58.9 M87.1 75.55 L87.35 75.6 87.3 75.75 87.1 75.55 M71.95 60.8 L72.2 61.0 72.9 59.7 72.2 61.0 71.95 60.8 M50.5 60.75 L50.65 59.0 50.5 60.75 M21.7 23.0 L18.3 22.25 18.2 22.25 18.15 22.5 Q18.15 23.15 21.55 24.3 26.55 25.95 30.35 28.15 L36.0 31.9 42.55 35.95 Q45.3 37.35 51.8 40.35 57.2 42.95 58.65 44.4 L63.7 48.55 Q66.25 50.55 66.25 52.2 L66.0 53.3 Q64.45 49.95 61.4 47.7 L58.45 45.6 52.95 42.4 52.4 46.2 Q52.35 45.55 51.5 44.35 50.65 43.1 50.55 44.7 50.15 43.75 48.85 43.15 L47.7 42.85 48.05 39.7 45.7 38.5 40.4 50.05 44.5 52.05 45.65 52.6 42.6 52.85 18.45 39.45 24.95 42.5 26.75 39.35 26.65 40.95 26.8 42.2 Q27.15 43.35 28.2 43.35 29.45 43.35 30.9 39.35 32.15 35.85 32.15 34.65 32.15 33.8 31.3 33.5 30.4 33.2 29.4 33.8 L31.0 30.85 21.85 26.0 18.25 24.2 21.85 26.0 15.65 38.15 12.25 36.6 13.35 34.35 13.4 34.7 Q13.8 35.95 15.0 35.95 16.2 35.95 17.5 32.6 18.6 29.75 18.6 28.7 18.6 27.55 17.75 27.2 L16.85 27.1 18.25 24.2 10.55 20.3 12.15 20.5 15.2 21.5 Q17.45 22.25 18.95 22.25 L19.85 22.0 21.7 23.0 M63.55 59.0 Q63.0 59.45 62.45 59.45 L62.1 59.4 62.15 59.35 62.15 58.95 63.55 59.0 M55.05 56.8 L54.45 56.85 54.05 56.8 54.0 56.8 54.05 56.75 54.6 56.65 55.05 56.8 M48.05 39.7 L52.95 42.4 48.05 39.7 M38.8 43.35 L38.75 44.15 Q38.75 45.05 38.0 46.7 L38.2 47.2 Q38.45 47.6 38.9 47.6 40.35 47.6 41.4 44.6 42.15 42.35 42.15 40.95 42.15 37.35 40.95 38.65 L40.7 39.2 41.9 36.5 35.45 33.15 29.7 44.8 36.6 48.2 38.8 43.35 M40.4 50.05 L36.6 48.2 40.4 50.05 M49.45 49.7 L49.2 49.35 Q48.9 49.05 48.9 48.6 L49.8 47.55 50.4 46.75 50.0 48.15 49.45 49.7 M49.05 45.6 L48.9 45.05 49.1 45.6 49.05 45.6 M45.7 38.5 L41.9 36.5 45.7 38.5 M14.45 19.1 Q9.5 18.15 7.8 16.9 L5.55 14.6 6.85 15.2 11.1 17.35 14.45 19.1 M-8.8 11.15 L-6.65 11.9 Q1.45 14.75 2.55 15.4 L4.8 17.2 5.25 17.65 -0.5 14.95 Q-3.25 13.6 -6.0 12.35 L-8.8 11.15 M35.45 33.15 L31.0 30.85 35.45 33.15 M24.95 42.5 L29.7 44.8 24.95 42.5 M71.1 51.55 L72.3 53.9 71.1 51.55 M-19.0 8.55 Q-21.35 9.7 -22.6 12.15 L-22.75 12.5 -22.6 12.15 Q-21.35 9.7 -19.0 8.55" fill="#ffb444" fill-rule="evenodd" stroke="none"/>
    <path d="M48.15 69.9 L45.25 69.3 45.0 69.0 44.65 67.9 Q44.65 66.3 47.05 67.2 49.45 68.1 49.45 69.15 L49.1 69.85 48.8 70.05 48.15 69.9 M45.2 64.25 L45.35 63.35 45.5 62.4 45.55 62.4 46.15 58.9 46.3 56.75 43.45 56.45 42.9 55.7 42.0 55.55 42.15 54.15 37.2 53.55 37.6 52.75 31.95 50.4 32.05 49.95 25.7 45.8 Q23.7 44.6 21.4 43.8 L13.55 40.8 Q9.5 39.15 6.05 37.0 L-1.05 32.75 -4.7 30.6 -11.55 26.45 Q-14.85 24.25 -17.05 21.3 -18.45 19.45 -18.85 17.35 L-12.2 22.45 -7.95 25.2 -2.9 28.3 2.1 31.25 Q4.6 32.7 7.25 33.95 L12.25 36.6 15.65 38.15 18.45 39.45 42.6 52.85 45.65 52.6 46.55 53.05 47.5 44.8 47.5 44.6 47.7 42.85 48.85 43.15 Q50.15 43.75 50.55 44.7 L50.7 45.15 50.7 45.3 50.7 45.45 50.7 45.6 50.4 46.75 49.8 47.55 48.9 48.6 Q48.9 49.05 49.2 49.35 L49.45 49.7 49.5 50.1 48.9 58.35 48.85 59.85 48.45 61.65 48.4 61.85 Q47.85 63.3 45.6 64.35 L45.2 64.25 M87.35 75.6 L91.0 69.3 Q94.35 63.3 100.95 55.55 104.2 51.7 106.75 49.4 L108.25 48.2 Q109.95 46.85 112.15 46.0 L112.2 46.1 112.2 46.0 116.45 45.75 117.95 46.5 Q118.65 48.4 118.7 50.5 118.75 52.65 118.15 54.85 L115.7 62.25 113.5 67.75 113.95 66.7 113.15 67.65 108.6 73.55 105.2 77.75 102.9 81.15 102.15 81.75 98.4 84.6 93.25 87.95 90.15 90.25 87.25 90.95 86.2 90.75 82.8 91.7 Q81.9 91.7 81.15 91.25 80.4 90.75 80.4 90.05 80.4 87.55 84.5 80.35 L86.3 77.35 87.3 75.75 86.3 77.35 86.1 77.35 Q83.85 77.35 82.95 74.65 L82.25 70.45 Q82.05 69.25 80.55 68.5 79.05 67.8 78.85 66.8 L78.9 65.1 79.1 63.75 78.95 63.0 77.2 62.75 Q73.55 62.75 72.9 59.8 L72.9 59.7 73.05 59.3 Q73.45 58.45 73.45 57.55 L73.1 55.85 72.3 53.9 72.1 53.15 Q71.8 52.35 71.1 51.55 69.9 49.5 68.3 47.65 L67.3 46.6 70.1 47.65 Q72.35 48.6 74.45 50.1 76.15 51.35 76.45 53.5 L76.95 57.5 Q77.15 58.95 77.75 60.05 L82.3 59.75 Q82.85 60.85 82.4 62.05 L82.05 63.1 82.25 63.5 83.3 63.75 85.2 63.65 85.85 63.4 Q87.3 62.6 88.8 62.0 L89.15 61.2 89.85 60.6 90.05 60.5 Q92.3 59.4 93.95 57.45 L90.75 61.95 Q88.7 64.95 87.05 68.3 86.3 69.9 85.85 71.7 85.65 72.5 85.75 73.25 L86.05 74.6 86.3 75.2 86.3 75.25 87.1 75.55 87.3 75.75 87.35 75.6 M109.0 60.25 Q110.95 55.05 111.85 50.65 L112.15 46.0 111.85 50.65 Q110.95 55.05 109.0 60.25 M90.35 89.6 L86.2 90.75 90.35 89.6 M59.25 43.0 L59.9 43.5 62.7 45.9 Q66.35 48.2 67.6 50.7 68.35 52.2 68.35 54.6 68.35 56.0 66.5 58.65 64.4 61.65 62.35 61.65 L60.65 61.65 Q59.2 61.4 59.0 60.3 L50.65 59.0 51.1 55.15 54.15 56.45 54.6 56.65 54.05 56.75 54.0 56.8 54.05 56.8 54.45 56.85 55.05 56.8 55.65 57.05 57.4 57.65 61.6 58.8 61.9 58.9 62.15 58.95 62.15 59.35 62.1 59.4 62.45 59.45 Q63.0 59.45 63.55 59.0 L65.05 58.75 66.1 58.1 Q66.85 57.3 67.15 56.25 L66.5 54.45 66.0 53.3 66.25 52.2 Q66.25 50.55 63.7 48.55 L58.65 44.4 Q57.2 42.95 51.8 40.35 45.3 37.35 42.55 35.95 L36.0 31.9 30.35 28.15 Q26.55 25.95 21.55 24.3 18.15 23.15 18.15 22.5 L18.2 22.25 18.3 22.25 21.7 23.0 21.75 23.0 22.15 23.25 22.35 23.35 28.2 26.5 34.8 29.8 38.35 31.6 Q41.55 33.1 44.6 34.7 L49.7 37.4 49.95 37.55 50.5 37.85 56.15 41.05 56.3 41.15 56.75 41.4 57.3 41.7 59.25 43.0 M40.7 39.2 L40.95 38.65 Q42.15 37.35 42.15 40.95 42.15 42.35 41.4 44.6 40.35 47.6 38.9 47.6 38.45 47.6 38.2 47.2 L38.0 46.7 Q38.75 45.05 38.75 44.15 L38.8 43.35 40.7 39.2 M49.05 45.6 L49.1 45.6 48.9 45.05 49.05 45.6 M5.55 14.6 L7.8 16.9 Q9.5 18.15 14.45 19.1 L17.75 20.85 19.85 22.0 18.95 22.25 Q17.45 22.25 15.2 21.5 L12.15 20.5 10.55 20.3 9.7 19.85 7.15 18.55 5.75 17.9 5.25 17.65 4.8 17.2 2.55 15.4 Q1.45 14.75 -6.65 11.9 L-8.8 11.15 Q-9.75 10.75 -10.65 10.5 L-10.85 10.4 -14.1 8.95 Q-14.1 6.9 -8.15 8.7 L-7.95 8.75 -7.85 8.8 -7.3 9.0 -5.65 9.65 Q-2.25 11.0 1.05 12.45 L4.4 14.05 5.55 14.55 5.55 14.6 M16.85 27.1 L17.75 27.2 Q18.6 27.55 18.6 28.7 18.6 29.75 17.5 32.6 16.2 35.95 15.0 35.95 13.8 35.95 13.4 34.7 L13.35 34.35 16.85 27.1 M12.25 36.6 L12.05 36.9 12.25 36.6 M46.55 53.05 L46.3 56.75 46.55 53.05 M26.75 39.35 L27.9 37.0 29.4 33.8 Q30.4 33.2 31.3 33.5 32.15 33.8 32.15 34.65 32.15 35.85 30.9 39.35 29.45 43.35 28.2 43.35 27.15 43.35 26.8 42.2 L26.65 40.95 26.75 39.35 M45.55 62.4 L45.35 63.35 45.55 62.4" fill="#af6a03" fill-rule="evenodd" stroke="none"/>
    <path d="M101.25 48.0 L97.95 51.85 Q94.85 55.25 93.4 55.25 92.75 55.25 92.5 54.7 L92.35 54.1 Q92.35 53.5 94.8 50.2 L98.15 45.9 Q99.6 44.3 104.4 42.75 L105.65 42.4 112.75 41.25 Q110.15 43.1 106.7 44.55 L104.9 45.45 Q102.55 46.75 101.25 48.0 M83.25 50.9 L81.45 51.25 Q79.65 51.25 77.25 49.5 75.1 47.95 75.1 47.45 75.1 45.3 78.0 46.6 82.15 48.5 82.6 48.5 84.3 48.5 84.35 49.9 84.35 50.5 83.25 50.9 M49.95 37.55 L48.6 36.55 46.65 34.9 49.85 35.05 Q51.8 36.0 51.8 37.0 51.8 37.85 50.5 37.85 L49.95 37.55" fill="#ffffff" fill-rule="evenodd" stroke="none"/>
    <path d="M103.0 84.15 L103.15 84.15 102.5 84.55 103.0 84.15 M111.45 71.85 L111.55 71.75 111.45 71.9 111.45 71.85 M55.65 57.05 L55.05 56.8 55.1 56.8 55.65 57.05 M5.25 17.65 L5.75 17.9 5.3 17.65 5.25 17.65" fill="#d27e02" fill-rule="evenodd" stroke="none"/>
    <path d="M-4.0 7.1 L-11.7 2.05 -11.55 0.15 Q-11.3 -1.45 -13.0 -1.7 L-15.65 -0.5 Q-16.55 -0.15 -16.85 0.7 L-18.15 4.7 -16.3 5.4 Q-14.65 5.05 -12.95 5.45 -11.15 5.65 -9.3 6.15 L-4.0 7.1 0.85 9.7 Q4.7 11.8 8.75 13.7 L16.2 17.35 23.15 20.8 30.35 24.25 37.7 27.85 Q41.85 27.8 45.8 29.5 L52.9 32.6 59.55 36.1 66.85 40.15 Q70.7 42.15 74.75 43.95 77.95 45.25 81.3 46.15 L85.5 47.1 90.55 45.95 98.95 43.0 106.15 40.35 109.5 39.6 Q113.8 38.6 117.95 39.5 118.45 39.65 118.95 39.95 120.75 40.95 121.5 42.9 122.45 45.25 122.55 48.05 122.75 52.6 121.5 57.0 L119.9 62.0 Q118.5 65.9 116.55 69.75 114.75 73.3 112.2 76.45 L108.8 80.45 103.9 85.35 101.8 87.0 96.9 90.4 Q93.35 92.65 89.25 93.7 84.45 94.85 79.5 94.6 77.65 94.55 75.9 93.6 73.95 92.6 73.15 90.55 72.2 88.1 72.35 85.4 L72.8 78.95 73.2 73.8 73.5 68.65 73.4 63.45 Q73.35 62.3 72.2 61.0 71.2 62.5 69.8 63.4 68.15 64.4 65.95 64.55 L61.85 64.35 Q57.2 63.3 52.9 61.65 L50.5 60.75 50.1 67.15 50.3 70.35 48.15 69.9 45.25 69.3 44.3 69.1 45.2 64.25 45.35 63.35 45.55 62.4 46.15 58.9 43.2 57.55 37.35 54.8 30.9 51.7 23.5 47.9 15.15 43.45 10.7 41.0 4.35 37.4 -1.3 34.15 -7.95 29.95 Q-12.0 27.3 -15.8 24.25 L-19.05 21.3 -21.85 17.7 Q-22.8 16.2 -23.05 14.55 -23.15 13.5 -22.75 12.5 -22.0 8.35 -20.35 6.95 L-20.15 6.8 Q-18.6 5.55 -16.3 5.4 M87.35 75.6 L91.0 69.3 Q94.35 63.3 100.95 55.55 104.2 51.7 106.75 49.4 L108.25 48.2 Q109.95 46.85 112.15 46.0 L112.2 46.1 112.2 46.0 116.45 45.75 117.95 46.5 118.85 47.15 M112.15 46.0 L111.85 50.65 Q110.95 55.05 109.0 60.25 M87.35 75.6 L87.3 75.75 86.3 77.35 84.5 80.35 Q80.4 87.55 80.4 90.05 80.4 90.75 81.15 91.25 81.9 91.7 82.8 91.7 L86.2 90.75 90.35 89.6 M72.9 59.7 L72.2 61.0 71.95 60.8 M37.7 27.85 L38.15 28.15 42.0 30.1 48.2 33.55 56.25 38.45 60.8 41.3 Q64.4 43.6 67.3 46.6 L68.3 47.65 Q69.9 49.5 71.1 51.55 L72.3 53.9 73.1 55.85 73.45 57.55 Q73.45 58.45 73.05 59.3 L72.9 59.7 M50.65 59.0 L50.5 60.75 M66.0 53.3 L66.5 54.45 67.15 56.25 Q66.85 57.3 66.1 58.1 L65.05 58.75 63.55 59.0 62.15 58.95 M61.9 58.9 L61.6 58.8 57.4 57.65 55.65 57.05 55.05 56.8 54.6 56.65 54.15 56.45 51.1 55.15 50.65 59.0 M47.7 42.85 L48.05 39.7 45.7 38.5 40.4 50.05 44.5 52.05 45.65 52.6 46.55 53.05 47.5 44.8 M47.5 44.6 L47.7 42.85 M52.4 46.2 L52.95 42.4 48.05 39.7 M38.8 43.35 L36.6 48.2 40.4 50.05 M52.4 46.2 L52.35 46.6 51.1 55.15 M66.0 53.3 Q64.45 49.95 61.4 47.7 L58.45 45.6 52.95 42.4 M40.7 39.2 L41.9 36.5 35.45 33.15 29.7 44.8 36.6 48.2 M41.9 36.5 L45.7 38.5 M-10.85 10.4 L-10.65 10.5 Q-9.75 10.75 -8.8 11.15 L-6.0 12.35 Q-3.25 13.6 -0.5 14.95 L5.25 17.65 5.75 17.9 7.15 18.55 9.7 19.85 10.55 20.3 18.25 24.2 21.85 26.0 31.0 30.85 35.45 33.15 M13.35 34.35 L12.25 36.6 15.65 38.15 21.85 26.0 M12.05 36.9 L12.25 36.6 7.25 33.95 Q4.6 32.7 2.1 31.25 L-2.9 28.3 -7.95 25.2 -12.2 22.45 -18.85 17.35 -19.0 17.15 -20.45 15.05 Q-20.8 14.35 -20.75 13.65 -20.45 10.95 -19.0 8.55 L-14.35 9.4 -10.85 10.4 M46.3 56.75 L46.55 53.05 M13.35 34.35 L16.85 27.1 18.25 24.2 M15.65 38.15 L18.45 39.45 24.95 42.5 26.75 39.35 27.9 37.0 29.4 33.8 31.0 30.85 M29.7 44.8 L24.95 42.5 M46.15 58.9 L46.3 56.75 M38.8 43.35 L40.7 39.2 M-22.75 12.5 L-22.6 12.15 Q-21.35 9.7 -19.0 8.55" fill="none" stroke="#000000" stroke-linecap="round" stroke-linejoin="round" stroke-opacity="0.4" stroke-width="0.05"/>
  </g>
</svg>
