<?xml version="1.0" encoding="UTF-8" standalone="no"?>
<svg xmlns:ffdec="https://www.free-decompiler.com/flash" xmlns:xlink="http://www.w3.org/1999/xlink" ffdec:objectType="shape" height="64.3px" width="100.25px" xmlns="http://www.w3.org/2000/svg">
  <g transform="matrix(1.0, 0.0, 0.0, 1.0, 23.35, 2.55)">
    <path d="M-14.2 -0.45 L-13.5 -0.15 -10.4 2.8 -8.8 3.6 Q-5.1 5.5 -1.2 6.9 L9.25 10.35 19.75 13.15 31.25 16.3 42.45 19.7 Q47.5 21.2 52.4 23.0 L62.4 26.9 Q67.7 29.0 72.45 32.0 L71.4 34.45 71.9 34.4 76.9 38.4 73.4 44.95 61.75 37.4 73.5 57.25 67.5 61.75 63.25 54.35 58.6 47.05 Q55.95 43.15 52.6 39.95 L57.35 46.1 Q61.15 51.35 64.1 57.3 L60.9 58.5 57.75 53.05 Q54.65 48.15 50.35 44.1 L56.55 59.6 51.9 60.75 48.9 55.8 47.1 57.1 43.3 50.85 41.35 48.25 Q37.3 43.5 32.85 39.15 L24.45 31.2 18.8 26.35 Q15.05 23.1 11.0 20.2 6.55 17.0 1.8 14.25 -2.6 11.75 -7.55 10.55 L-10.7 10.2 -12.95 9.9 -19.85 9.35 -20.3 9.05 -20.6 8.3 -20.75 8.35 Q-21.3 8.45 -21.2 7.75 L-21.8 7.5 -22.95 5.2 Q-23.45 4.0 -23.35 2.95 -23.3 1.95 -22.8 1.2 -22.15 0.25 -21.15 -0.4 L-19.2 -1.45 Q-17.55 -2.2 -16.1 -1.45 L-14.2 -0.45 -13.95 0.45 -14.2 -0.45 M48.9 55.8 L49.8 55.3 48.5 52.85 Q45.95 48.65 42.75 44.95 39.15 40.7 35.05 36.85 31.65 33.55 27.5 31.0 31.65 33.55 35.05 36.85 39.15 40.7 42.75 44.95 45.95 48.65 48.5 52.85 L49.8 55.3 48.9 55.8 M52.6 39.95 Q49.05 36.6 44.75 33.95 40.95 31.65 37.1 30.3 40.95 31.65 44.75 33.95 49.05 36.6 52.6 39.95 M71.4 34.45 L70.4 37.2 Q66.75 34.6 62.75 32.7 57.6 30.35 52.25 28.15 L45.9 25.75 39.3 23.25 32.2 20.85 39.3 23.25 45.9 25.75 52.25 28.15 Q57.6 30.35 62.75 32.7 66.75 34.6 70.4 37.2 L71.4 34.45 M61.75 37.4 Q56.9 34.65 51.85 32.55 47.55 30.65 43.15 29.0 L33.35 25.3 43.15 29.0 Q47.55 30.65 51.85 32.55 56.9 34.65 61.75 37.4 M50.35 44.1 L44.6 38.7 50.35 44.1 M-19.8 2.7 L-22.5 2.25 -19.8 2.7 M-9.45 3.75 L-10.4 2.8 -9.45 3.75 M-10.95 9.0 L-11.7 9.0 Q-12.55 9.15 -12.95 9.9 -12.55 9.15 -11.7 9.0 L-10.95 9.0 M-15.95 9.0 L-19.85 9.35 -15.95 9.0 M-12.3 5.4 L-13.25 5.6 -15.75 5.0 -13.25 5.6 -12.3 5.4" fill="url(#gradient0)" fill-rule="evenodd" stroke="none"/>
    <path d="M-14.2 -0.45 L-13.5 -0.15 -10.4 2.8 -8.8 3.6 Q-5.1 5.5 -1.2 6.9 L9.25 10.35 19.75 13.15 31.25 16.3 42.45 19.7 Q47.5 21.2 52.4 23.0 L62.4 26.9 Q67.7 29.0 72.45 32.0 L71.4 34.45 71.9 34.4 76.9 38.4 73.4 44.95 61.75 37.4 73.5 57.25 67.5 61.75 63.25 54.35 58.6 47.05 Q55.95 43.15 52.6 39.95 L57.35 46.1 Q61.15 51.35 64.1 57.3 L60.9 58.5 57.75 53.05 Q54.65 48.15 50.35 44.1 L56.55 59.6 51.9 60.75 48.9 55.8 47.1 57.1 43.3 50.85 41.35 48.25 Q37.3 43.5 32.85 39.15 L24.45 31.2 18.8 26.35 Q15.05 23.1 11.0 20.2 6.55 17.0 1.8 14.25 -2.6 11.75 -7.55 10.55 L-10.7 10.2 -12.95 9.9 -13.45 10.6 -17.3 11.15 M-12.95 9.9 L-19.85 9.35 -20.3 9.05 -20.6 8.3 -20.75 8.35 Q-21.3 8.45 -21.2 7.75 L-21.8 7.5 -22.95 5.2 Q-23.45 4.0 -23.35 2.95 -23.3 1.95 -22.8 1.2 -22.15 0.25 -21.15 -0.4 L-19.2 -1.45 Q-17.55 -2.2 -16.1 -1.45 L-14.2 -0.45 -16.35 -2.55 M-15.75 5.0 L-13.25 5.6 -12.3 5.4 M-19.85 9.35 L-15.95 9.0 M-12.95 9.9 Q-12.55 9.15 -11.7 9.0 L-10.95 9.0 M-10.4 2.8 L-9.45 3.75 M-22.5 2.25 L-19.8 2.7 M44.6 38.7 L50.35 44.1 M33.35 25.3 L43.15 29.0 Q47.55 30.65 51.85 32.55 56.9 34.65 61.75 37.4 M32.2 20.85 L39.3 23.25 45.9 25.75 52.25 28.15 Q57.6 30.35 62.75 32.7 66.75 34.6 70.4 37.2 L71.4 34.45 M37.1 30.3 Q40.95 31.65 44.75 33.95 49.05 36.6 52.6 39.95 M27.5 31.0 Q31.65 33.55 35.05 36.85 39.15 40.7 42.75 44.95 45.95 48.65 48.5 52.85 L49.8 55.3 48.9 55.8 M-14.2 -0.45 L-13.95 0.45" fill="none" stroke="#000000" stroke-linecap="round" stroke-linejoin="round" stroke-opacity="0.4" stroke-width="0.05"/>
  </g>
  <defs>
    <radialGradient cx="0" cy="0" gradientTransform="matrix(0.149, 0.0, 0.0, 0.149, -18.5, 2.6)" gradientUnits="userSpaceOnUse" id="gradient0" r="819.2" spreadMethod="pad">
      <stop offset="0.18823529411764706" stop-color="#ffffcc"/>
      <stop offset="1.0" stop-color="#165823"/>
    </radialGradient>
  </defs>
</svg>
