<?xml version="1.0" encoding="UTF-8" standalone="no"?>
<svg xmlns:ffdec="https://www.free-decompiler.com/flash" xmlns:xlink="http://www.w3.org/1999/xlink" ffdec:objectType="shape" height="19.35px" width="55.95px" xmlns="http://www.w3.org/2000/svg">
  <g transform="matrix(1.0, 0.0, 0.0, 1.0, 64.15, 18.45)">
    <path d="M-64.05 -10.75 L-64.15 -11.2 Q-64.15 -12.2 -63.15 -12.2 -62.2 -12.2 -62.2 -11.15 -62.2 -10.85 -62.45 -10.55 -62.75 -10.2 -63.15 -10.2 -63.8 -10.2 -64.05 -10.75 M-43.6 -13.55 L-43.4 -11.35 Q-43.4 -10.1 -44.45 -8.4 -45.85 -6.05 -48.15 -6.05 -50.7 -6.05 -51.8 -7.5 -52.5 -8.4 -52.5 -9.65 -52.5 -11.1 -51.5 -12.85 -49.8 -15.65 -46.35 -15.65 -44.2 -15.65 -43.6 -13.55 M-59.85 -3.55 Q-59.85 -6.15 -57.2 -6.45 -54.6 -6.75 -54.6 -3.25 -54.6 -2.45 -54.95 -1.8 -55.5 -0.65 -56.85 -0.65 -59.0 -0.65 -59.65 -2.1 -59.95 -2.8 -59.85 -3.55 M-34.45 -18.45 Q-31.85 -18.6 -30.1 -17.15 -28.1 -15.45 -28.1 -12.3 -28.1 -10.0 -30.05 -8.3 -32.4 -6.2 -36.8 -6.2 -39.2 -6.2 -40.05 -8.05 -40.4 -8.85 -40.4 -10.1 L-40.85 -12.75 Q-40.85 -15.2 -38.85 -16.85 -37.0 -18.35 -34.45 -18.45 M-33.9 -0.5 Q-34.8 0.4 -36.15 0.4 -39.55 0.4 -40.45 -0.65 -40.75 -1.0 -40.75 -2.1 -40.75 -5.95 -36.95 -5.65 -33.15 -5.4 -33.15 -2.0 -33.15 -1.25 -33.9 -0.5 M-26.55 -3.35 Q-27.6 -1.85 -28.7 -1.85 -29.85 -1.85 -30.2 -3.2 L-30.3 -4.6 Q-30.3 -6.0 -27.95 -7.1 -25.65 -8.2 -25.65 -5.25 -25.65 -4.6 -26.55 -3.35 M-24.2 -4.3 Q-22.4 -8.1 -20.6 -10.3 -18.3 -13.1 -16.25 -10.4 -14.65 -8.2 -14.65 -6.15 -16.35 -1.85 -20.0 -1.85 -22.15 -1.85 -23.35 -2.9 -24.2 -3.6 -24.2 -4.3 M-8.2 -1.9 Q-8.2 -1.1 -9.3 -0.25 -10.8 0.9 -13.45 0.9 -15.7 0.9 -16.45 -0.15 -16.8 -0.7 -16.75 -1.3 -16.75 -3.4 -12.45 -4.0 -8.2 -4.55 -8.2 -1.9" fill="#ba9501" fill-rule="evenodd" stroke="none"/>
  </g>
</svg>
